# xmcd CD database file
#
# Track frame offsets:
#	150
#	13845
#	26120
#	40665
#	54887
#	66775
#	81135
#	92702
#	103775
#	116392
#	127760
#	139307
#	152337
#	165332
#	178925
#	192110
#	205832
#	218710
#	230405
#	242312
#	252872
#	265357
#	278652
#	291165
#
# Disc length: 4054 seconds
#
# Revision: 0
# Processed by: cddbd v1.5.2PL0 Copyright (c) Steve Scherf et al.
# Submitted via: CDex 1.99.1
#
DISCID=420fd418
DTITLE=Roosevelt Sykes - Roosevelt Sykes Complete Recorded Works Vol. 9
DYEAR=1900
DGENRE=Blues
TTITLE0=Boogie Honky Tonk
TTITLE1=Booze Blues
TTITLE2=Time Wasted On You
TTITLE3=Until The Cows Come Home
TTITLE4=High As A Georgia Pine
TTITLE5=I Know How You Feel
TTITLE6=Candy Man Blues
TTITLE7=Why Should I Cry
TTITLE8=He's Just A Gravy Train
TTITLE9=Southern Blues
TTITLE10=Stop Her Poppa
TTITLE11=My Baby Is Gone
TTITLE12=Drivin' Wheel
TTITLE13=Rock It
TTITLE14=West Helena Blues
TTITLE15=Mailbox Blues
TTITLE16=Wintertime Blues
TTITLE17=Blues 'n' Boogie
TTITLE18=Green Onion Top
TTITLE19=Wonderin' Blues
TTITLE20=Dark Clouds (John Brim Vcl)
TTITLE21=Lonesome Man Blues (John Brim Vcl)
TTITLE22=Going Down The Line (Grace Brim Vcl)
TTITLE23=Leaving Daddy Blues (Grace Brim Vcl)
EXTD=
EXTT0=
EXTT1=
EXTT2=
EXTT3=
EXTT4=
EXTT5=
EXTT6=
EXTT7=
EXTT8=
EXTT9=
EXTT10=
EXTT11=
EXTT12=
EXTT13=
EXTT14=
EXTT15=
EXTT16=
EXTT17=
EXTT18=
EXTT19=
EXTT20=
EXTT21=
EXTT22=
EXTT23=
PLAYORDER=
